<svg width="17" height="21" viewBox="0 0 17 21" fill="none" xmlns="http://www.w3.org/2000/svg">
<path d="M16.6667 17V18H0.666748V17L2.44453 15V9C2.44453 5.9 4.24897 3.17 6.88897 2.29V2C6.88897 1.46957 7.07627 0.960859 7.40967 0.585786C7.74307 0.210714 8.19525 0 8.66675 0C9.13825 0 9.59043 0.210714 9.92383 0.585786C10.2572 0.960859 10.4445 1.46957 10.4445 2V2.29C13.0845 3.17 14.889 5.9 14.889 9V15L16.6667 17ZM10.4445 19C10.4445 19.5304 10.2572 20.0391 9.92383 20.4142C9.59043 20.7893 9.13825 21 8.66675 21C8.19525 21 7.74307 20.7893 7.40967 20.4142C7.07627 20.0391 6.88897 19.5304 6.88897 19" fill="#E0E0E0"/>
</svg>
